<svg width="378" height="71" viewBox="0 0 378 71" fill="none" xmlns="http://www.w3.org/2000/svg">
<g clip-path="url(#clip0_6323_2155)">
<path d="M301.204 17.7156C298.823 17.7156 297.544 18.9499 297.544 21.1542C297.544 23.4468 298.867 24.7252 301.204 24.7252C303.54 24.7252 304.863 23.4468 304.863 21.1542C304.863 18.9499 303.54 17.7156 301.204 17.7156ZM318.078 27.8993C311.686 27.8993 307.233 32.4838 307.233 39.273C307.233 45.9737 311.642 50.3823 318.254 50.3823C323.104 50.3823 326.498 48.4868 327.953 44.7394L323.104 42.976C322.045 45.2686 320.943 46.0182 318.386 46.0182C314.992 46.0182 313.405 44.5191 313.052 40.9041H328.394C328.438 40.0226 328.438 39.5374 328.438 38.8322C328.438 32.1755 324.249 27.8993 318.078 27.8993ZM313.052 37.0687C313.449 33.5862 314.992 32.1314 318.122 32.1314C321.296 32.1314 322.795 33.4098 322.883 37.0687H313.052ZM344.641 27.8993C340.762 27.8993 338.558 29.8829 337.5 33.3658V28.3402H331.901V49.9415H337.5V39.6259C337.5 35.1733 339.439 32.9691 342.57 32.9691C345.259 32.9691 346.757 34.4238 346.757 37.3332V49.9415H352.356V37.0248C352.356 30.9412 349.755 27.8993 344.641 27.8993ZM374.547 21.6137C373.089 21.6137 371.903 22.7999 371.903 24.2579C371.903 25.7158 373.089 26.9021 374.547 26.9021C376.005 26.9021 377.191 25.716 377.191 24.2579C377.191 22.7998 376.005 21.6137 374.547 21.6137ZM374.547 26.2643C373.441 26.2643 372.541 25.3642 372.541 24.2579C372.541 23.1515 373.441 22.2515 374.547 22.2515C375.653 22.2515 376.554 23.1516 376.554 24.2579C376.554 25.3642 375.654 26.2643 374.547 26.2643ZM364.16 21.9038H358.562V28.3402H354.418V33.2774H358.562V43.2408C358.562 47.2525 361.251 49.9415 365.263 49.9415H369.892V45.0043H364.16V33.2774H370.42V28.3402H364.16L364.16 21.9038ZM375.054 24.5096C375.419 24.3979 375.624 24.1146 375.624 23.7271C375.624 23.2277 375.27 22.8923 374.662 22.8923H373.511V25.5009H374.193V24.5655H374.543L374.893 25.5009H375.683L375.27 24.7333L375.054 24.5096ZM374.603 23.9991H374.193V23.4774H374.603C374.852 23.4774 374.946 23.552 374.946 23.7346C374.946 23.9283 374.852 23.9991 374.603 23.9991ZM154.817 27.8993C148.425 27.8993 143.972 32.4838 143.972 39.273C143.972 45.9737 148.381 50.3823 154.994 50.3823C159.843 50.3823 163.237 48.4868 164.692 44.7394L159.843 42.976C158.785 45.2686 157.683 46.0182 155.125 46.0182C151.731 46.0182 150.144 44.5191 149.791 40.9041H165.133C165.177 40.0226 165.177 39.5374 165.177 38.8322C165.177 32.1755 160.989 27.8993 154.817 27.8993ZM149.792 37.0687C150.188 33.5862 151.731 32.1314 154.861 32.1314C158.035 32.1314 159.534 33.4098 159.622 37.0687H149.792ZM60.3172 21.5229C58.7223 19.9658 56.6165 19.1079 54.3873 19.1079H51.8326V16.5528C51.8326 14.324 50.975 12.2182 49.418 10.6229L41.5432 2.55809C39.9324 0.908696 37.7755 0 35.4702 0C33.165 0 31.0081 0.908696 29.3973 2.55809L21.5229 10.6229C19.9658 12.2178 19.1079 14.3236 19.1079 16.5528V19.1079H16.5524C14.3236 19.1079 12.2178 19.9659 10.6229 21.5229L2.55809 29.3973C0.908697 31.0081 0 33.165 0 35.4706C0.000387553 37.7763 0.908697 39.9328 2.55809 41.5432L10.6233 49.418C12.2181 50.975 14.3236 51.8326 16.5524 51.8326H19.1078V54.3873C19.1078 56.6165 19.9658 58.7223 21.5228 60.3168L29.3973 68.3824C31.008 70.0318 33.165 70.9401 35.4702 70.9401C37.7755 70.9401 39.9324 70.0317 41.5431 68.3824L49.4179 60.3168C50.975 58.7219 51.8326 56.6161 51.8326 54.3873V51.8326H54.3873C56.6161 51.8326 58.7219 50.975 60.3172 49.418L68.3823 41.5432C70.0317 39.9328 70.94 37.7759 70.94 35.4706C70.94 33.1654 70.0317 31.0081 68.3823 29.3973L60.3172 21.5229ZM24.4568 24.4568H27.6231C28.4474 24.4568 29.2263 24.7735 29.8159 25.3496L31.6424 27.1325L29.7334 28.9965C29.6191 29.1014 29.5075 29.21 29.3969 29.3231L29.322 29.3977C29.2099 29.5075 29.1013 29.6191 29.0079 29.7213L27.1325 31.6424L25.3496 29.8167C24.7739 29.2266 24.4568 28.4474 24.4568 27.6231L24.4568 24.4568ZM24.4568 43.317C24.4568 42.4927 24.7736 41.7139 25.3496 41.1242L27.1326 39.2981L28.9905 41.2007C29.0976 41.3172 29.2081 41.4308 29.3224 41.5428L29.3969 41.617C29.5044 41.7275 29.6145 41.8342 29.7152 41.9265L31.6424 43.8079L29.8163 45.5909C29.2263 46.1669 28.4474 46.4841 27.6231 46.4841H24.4568V43.317ZM21.5229 37.3876C19.9655 38.9824 19.1079 41.0882 19.1079 43.317V46.4841H16.5524C15.7281 46.4841 14.9493 46.1669 14.3596 45.5909L6.29476 37.7164C5.68467 37.1207 5.34859 36.3233 5.34859 35.4706C5.34859 34.6179 5.68467 33.8201 6.29476 33.2244L14.3596 25.3496C14.9493 24.7735 15.7281 24.4568 16.5524 24.4568H19.1079V27.623C19.1079 29.8522 19.9659 31.958 21.5229 33.5525L23.3948 35.4702L21.5229 37.3876ZM46.4841 54.3873C46.4841 55.2116 46.167 55.9909 45.5909 56.5806L37.7165 64.6457C37.1208 65.2558 36.3233 65.5919 35.4706 65.5919C34.6179 65.5919 33.8197 65.2558 33.224 64.6454L25.3496 56.5805C24.7735 55.9909 24.4568 55.212 24.4568 54.3873V51.8326H27.623C29.8515 51.8326 31.9573 50.975 33.5529 49.418L35.4702 47.5456L37.3876 49.418C38.9828 50.975 41.0886 51.8326 43.3171 51.8326H46.4841V54.3873ZM31.916 35.4702C31.916 33.5101 33.5105 31.9156 35.4702 31.9156C37.4299 31.9156 39.0248 33.5101 39.0248 35.4702C39.0248 37.4303 37.4303 39.0248 35.4702 39.0248C33.5102 39.0248 31.916 37.4303 31.916 35.4702ZM46.4841 46.4841H43.3171C42.4928 46.4841 41.7139 46.1669 41.1242 45.5909L39.2977 43.8079L41.2071 41.9436C41.3214 41.8384 41.4338 41.7297 41.5402 41.6204L41.6185 41.542C41.7309 41.4327 41.8391 41.3206 41.9319 41.2192L43.808 39.2981L45.5909 41.1238C46.167 41.7139 46.4841 42.4928 46.4841 43.3171V46.4841ZM46.4841 27.623C46.4841 28.4474 46.167 29.2262 45.5909 29.8163L43.808 31.6424L41.9372 29.7266C41.8339 29.6145 41.7275 29.5044 41.6178 29.3977L41.5428 29.322C41.4312 29.2081 41.3173 29.0979 41.2128 29.0022L39.2977 27.1325L41.1238 25.3496C41.7139 24.7735 42.4928 24.4568 43.3171 24.4568H46.4841V27.623ZM46.4841 19.1078H43.3171C41.0883 19.1078 38.9825 19.9654 37.3872 21.5228L35.4702 23.3947L33.5526 21.5228C31.9577 19.9654 29.8519 19.1078 27.6231 19.1078H24.4568V16.5528C24.4568 15.7281 24.7736 14.9492 25.3496 14.3595L33.2241 6.29468C33.8198 5.6846 34.6176 5.34851 35.4703 5.34851C36.323 5.34851 37.1208 5.6846 37.7165 6.29468L45.591 14.3595C46.167 14.9492 46.4842 15.7284 46.4842 16.5528L46.4841 19.1078ZM64.6454 37.7164L56.5806 45.5909C55.9909 46.1669 55.2116 46.4841 54.3873 46.4841H51.8326V43.317C51.8326 41.0886 50.975 38.9828 49.418 37.3872L47.5457 35.4702L49.418 33.5525C50.975 31.9577 51.8326 29.8518 51.8326 27.623V24.4568H54.3873C55.212 24.4568 55.9909 24.7735 56.5806 25.3496L64.6454 33.2244C65.2555 33.8201 65.5916 34.6175 65.5916 35.4706C65.5916 36.3237 65.2555 37.1207 64.6454 37.7164ZM261.698 33.1894C260.331 29.7949 257.642 27.8993 253.939 27.8993C247.899 27.8993 244.373 32.3958 244.373 39.185C244.373 45.8858 248.031 50.3823 254.203 50.3823C257.774 50.3823 260.375 48.5309 261.698 45.2247V49.9415H267.297V28.3402H261.698V33.1894ZM255.878 45.3126C251.911 45.3126 250.015 43.3288 250.015 39.185C250.015 34.9529 251.911 32.969 255.878 32.969C259.978 32.969 261.874 34.9529 261.874 39.185C261.874 43.3288 259.978 45.3126 255.878 45.3126ZM209.179 38.4355H218.084C217.511 42.976 213.896 45.3566 209.091 45.3566C202.169 45.3566 198.599 41.7861 198.599 34.4677C198.599 27.5906 202.169 23.9316 208.958 23.9316C213.587 23.9316 216.629 26.0034 217.952 31.2055L223.286 28.8689C221.787 22.3445 216.012 18.6416 209.091 18.6416C199.524 18.6416 192.603 25.1219 192.603 34.4677C192.603 43.8579 199.524 50.3823 207.812 50.3823C211.471 50.3823 216.629 49.2803 218.569 43.2408V49.9415H223.639V33.5423H209.179L209.179 38.4355ZM234.226 34.4677V28.3401H228.627V49.9415H234.226V40.9925C234.226 35.5256 236.695 33.1454 240.221 33.1454C241.632 33.1454 242.337 33.2774 243.131 33.5862V28.2961C242.337 27.9873 241.323 27.9873 240.53 27.9873C236.386 27.9873 234.799 31.2055 234.226 34.4677ZM181.381 27.8993C177.501 27.8993 175.297 29.8829 174.239 33.3658V28.3402H168.64V49.9415H174.239V39.6259C174.239 35.1733 176.179 32.9691 179.309 32.9691C181.998 32.9691 183.497 34.4238 183.497 37.3332V49.9415H189.095V37.0248C189.095 30.9412 186.494 27.8993 181.381 27.8993ZM99.1992 18.6416C90.4701 18.6416 83.3286 25.0336 83.3286 34.5118C83.3286 43.9019 90.4701 50.3823 99.1992 50.3823C107.972 50.3823 115.113 43.9019 115.113 34.5118C115.113 25.0336 107.972 18.6416 99.1992 18.6416ZM99.1992 45.0923C92.6743 45.0923 89.3682 41.4773 89.3682 34.4677C89.3682 27.5026 92.6743 23.9316 99.1992 23.9316C105.767 23.9316 109.074 27.5026 109.074 34.4677C109.074 41.4773 105.767 45.0923 99.1992 45.0923ZM298.426 49.9415H304.025V28.3401H298.426V49.9415ZM288.116 33.1894C286.749 29.7949 284.06 27.8993 280.357 27.8993C274.318 27.8993 270.791 32.3958 270.791 39.185C270.791 45.8858 274.45 50.3823 280.622 50.3823C284.193 50.3823 286.793 48.5309 288.116 45.2247V49.9415H293.715V19.0823H288.116V33.1894ZM282.297 45.3126C278.329 45.3126 276.434 43.3288 276.434 39.185C276.434 34.9529 278.329 32.969 282.297 32.969C286.397 32.969 288.292 34.9529 288.292 39.185C288.292 43.3288 286.397 45.3126 282.297 45.3126ZM132.322 27.8993C128.663 27.8993 125.93 29.7508 124.563 33.101V28.3402H118.965V57.4358H124.563V45.3127C125.93 48.5748 128.487 50.3824 132.013 50.3824C138.185 50.3824 141.844 45.8858 141.844 39.1851C141.844 32.3959 138.318 27.8993 132.322 27.8993ZM130.338 45.3126C126.238 45.3126 124.343 43.3288 124.343 39.185C124.343 34.9529 126.238 32.969 130.338 32.969C134.35 32.969 136.201 34.9529 136.201 39.185C136.201 43.3288 134.35 45.3126 130.338 45.3126Z" fill="#0E4B5B"/>
</g>
<defs>
<clipPath id="clip0_6323_2155">
<rect width="377.191" height="70.9401" fill="white"/>
</clipPath>
</defs>
</svg>
