<svg width="500" height="500" viewBox="0 0 500 500" fill="none" xmlns="http://www.w3.org/2000/svg">
<g clip-path="url(#clip0_6323_2146)">
<path d="M351.285 193.288C344.747 186.901 336.113 183.381 326.974 183.381H316.501V172.9C316.501 163.758 312.985 155.12 306.601 148.576L274.316 115.493C267.713 108.728 258.87 105 249.419 105C239.968 105 231.125 108.728 224.522 115.493L192.238 148.576C185.855 155.118 182.337 163.756 182.337 172.9V183.381H171.861C162.723 183.381 154.09 186.901 147.551 193.288L114.487 225.589C107.725 232.197 104 241.045 104 250.502C104.002 259.96 107.725 268.807 114.487 275.412L147.553 307.715C154.091 314.102 162.723 317.62 171.861 317.62H182.337V328.1C182.337 337.244 185.855 345.882 192.238 352.423L224.521 385.508C231.125 392.274 239.968 396 249.419 396C258.87 396 267.713 392.274 274.316 385.508L306.601 352.423C312.984 345.881 316.5 337.242 316.5 328.1V317.62H326.974C336.112 317.62 344.745 314.102 351.285 307.715L384.35 275.412C391.112 268.806 394.836 259.959 394.836 250.502C394.836 241.046 391.112 232.197 384.35 225.589L351.285 193.288ZM204.267 205.323H217.248C220.627 205.323 223.82 206.622 226.238 208.985L233.726 216.299L225.899 223.945C225.431 224.375 224.973 224.821 224.52 225.285L224.213 225.591C223.753 226.041 223.308 226.499 222.925 226.918L215.237 234.799L207.927 227.31C205.567 224.889 204.266 221.693 204.266 218.311L204.267 205.323ZM204.267 282.689C204.267 279.307 205.565 276.112 207.927 273.694L215.237 266.203L222.854 274.007C223.293 274.486 223.746 274.951 224.214 275.411L224.52 275.715C224.961 276.168 225.412 276.606 225.825 276.985L233.726 284.702L226.239 292.016C223.82 294.379 220.627 295.68 217.248 295.68H204.267V282.689ZM192.238 258.366C185.853 264.908 182.338 273.546 182.338 282.689V295.68H171.861C168.481 295.68 165.288 294.379 162.871 292.016L129.807 259.715C127.306 257.271 125.928 254 125.928 250.502C125.928 247.005 127.306 243.732 129.807 241.288L162.871 208.985C165.288 206.622 168.481 205.323 171.861 205.323H182.338V218.311C182.338 227.455 185.855 236.093 192.238 242.634L199.913 250.501L192.238 258.366ZM294.573 328.1C294.573 331.481 293.273 334.678 290.911 337.097L258.628 370.18C256.186 372.683 252.916 374.062 249.421 374.062C245.925 374.062 242.652 372.683 240.21 370.179L207.927 337.096C205.565 334.678 204.266 331.483 204.266 328.1V317.62H217.247C226.383 317.62 235.017 314.102 241.558 307.715L249.419 300.035L257.28 307.715C263.82 314.102 272.453 317.62 281.589 317.62H294.573V328.1ZM234.848 250.501C234.848 242.46 241.385 235.92 249.419 235.92C257.453 235.92 263.992 242.46 263.992 250.501C263.992 258.541 257.455 265.082 249.419 265.082C241.383 265.082 234.848 258.541 234.848 250.501ZM294.573 295.68H281.589C278.209 295.68 275.016 294.379 272.599 292.016L265.111 284.702L272.939 277.055C273.407 276.623 273.868 276.178 274.304 275.729L274.625 275.408C275.086 274.959 275.53 274.5 275.91 274.083L283.601 266.203L290.911 273.692C293.273 276.113 294.573 279.308 294.573 282.689V295.68ZM294.573 218.311C294.573 221.693 293.273 224.888 290.911 227.308L283.601 234.799L275.932 226.94C275.508 226.48 275.072 226.029 274.622 225.591L274.315 225.28C273.857 224.813 273.39 224.361 272.962 223.968L265.111 216.299L272.597 208.985C275.016 206.622 278.209 205.323 281.589 205.323H294.573V218.311ZM294.573 183.381H281.589C272.451 183.381 263.818 186.899 257.278 193.288L249.419 200.966L241.557 193.288C235.018 186.899 226.385 183.381 217.248 183.381H204.267V172.9C204.267 169.517 205.565 166.322 207.927 163.904L240.21 130.821C242.652 128.319 245.923 126.94 249.419 126.94C252.915 126.94 256.186 128.319 258.628 130.821L290.911 163.904C293.273 166.322 294.573 169.519 294.573 172.9L294.573 183.381ZM369.03 259.715L335.966 292.016C333.548 294.379 330.354 295.68 326.974 295.68H316.501V282.689C316.501 273.548 312.985 264.91 306.601 258.364L298.925 250.501L306.601 242.634C312.985 236.092 316.501 227.454 316.501 218.311V205.323H326.974C330.355 205.323 333.548 206.622 335.966 208.985L369.03 241.288C371.531 243.732 372.909 247.003 372.909 250.502C372.909 254.002 371.531 257.271 369.03 259.715Z" fill="black"/>
</g>
<defs>
<clipPath id="clip0_6323_2146">
<rect width="291" height="291" fill="white" transform="translate(104 105)"/>
</clipPath>
</defs>
</svg>
